<?xml version="1.0" standalone="no"?>
<!DOCTYPE svg PUBLIC "-//W3C//DTD SVG 20010904//EN"
 "http://www.w3.org/TR/2001/REC-SVG-20010904/DTD/svg10.dtd">
<svg version="1.0" xmlns="http://www.w3.org/2000/svg"
 width="456.000000pt" height="456.000000pt" viewBox="0 0 456.000000 456.000000"
 preserveAspectRatio="xMidYMid meet">
<metadata>
Created by potrace 1.14, written by Peter Selinger 2001-2017
</metadata>
<g transform="translate(0.000000,456.000000) scale(0.100000,-0.100000)"
fill="#000000" stroke="none">
<path d="M0 2280 l0 -2280 2280 0 2280 0 0 2280 0 2280 -2280 0 -2280 0 0
-2280z m2190 2063 c0 -5 -34 -83 -76 -175 -72 -158 -79 -168 -104 -168 -47 0
-191 -28 -285 -55 -159 -46 -337 -141 -468 -248 -61 -50 -188 -181 -235 -242
l-23 -30 6 30 c10 49 90 209 148 298 65 100 213 257 311 331 168 126 368 213
580 251 82 15 146 18 146 8z m909 -369 c420 -61 794 -256 1066 -554 l69 -74
-80 -18 c-43 -9 -156 -34 -250 -54 l-172 -37 -68 73 c-333 355 -835 575 -1321
581 l-68 1 34 14 c45 20 235 63 325 73 122 14 351 12 465 -5z m-344 -198 c179
-45 292 -94 441 -194 162 -109 328 -285 410 -435 l27 -51 -84 70 c-108 91
-156 123 -272 183 -191 98 -383 143 -621 145 l-159 2 -102 150 c-57 82 -100
153 -98 158 3 5 84 6 182 3 142 -4 195 -10 276 -31z m-2159 -188 c81 -90 158
-175 171 -189 l24 -26 -31 -104 c-140 -471 -75 -1023 170 -1437 41 -70 18 -58
-76 40 -233 242 -382 509 -463 824 -69 269 -69 610 -1 879 20 76 51 175 56
175 2 0 69 -73 150 -162z m349 -319 c-25 -98 -31 -362 -11 -479 31 -192 114
-408 210 -549 20 -29 36 -57 36 -62 0 -5 -36 -85 -80 -177 l-81 -167 -46 70
c-96 148 -168 333 -198 514 -14 80 -16 139 -12 269 6 184 28 298 87 448 36 90
103 219 108 206 1 -5 -5 -38 -13 -73z m1519 -365 c11 -4 16 -19 16 -50 0 -27
6 -48 16 -56 59 -48 54 -12 54 -430 0 -211 -4 -388 -8 -393 -4 -6 -19 -18 -34
-28 -22 -14 -27 -25 -30 -64 l-3 -48 -50 -3 c-27 -2 -55 -8 -62 -13 -6 -6 -13
-32 -15 -57 l-3 -47 -55 0 -55 0 -3 45 c-4 58 -16 70 -66 70 -53 0 -66 13 -66
66 0 37 -4 45 -27 56 l-28 13 -3 402 -2 402 30 16 c26 14 30 21 30 60 0 31 5
47 18 54 18 11 319 15 346 5z m906 -1187 c0 -7 -23 -53 -51 -102 -193 -337
-499 -567 -874 -655 -90 -22 -309 -45 -326 -34 -6 3 22 17 63 30 193 64 419
211 561 365 83 89 187 238 233 330 l27 57 126 9 c194 15 241 15 241 0z m65
-139 c-146 -508 -470 -902 -930 -1132 -61 -30 -155 -70 -211 -89 -101 -35
-284 -80 -284 -69 0 24 154 470 166 478 8 6 42 17 76 24 139 27 361 114 509
200 255 148 514 402 654 643 23 40 41 62 43 53 2 -9 -9 -58 -23 -108z m-2376
-127 c203 -266 540 -466 868 -513 46 -7 80 -15 75 -20 -15 -15 -209 -31 -322
-25 -343 16 -641 148 -886 392 -98 97 -182 200 -172 210 5 5 275 32 330 34
l47 1 60 -79z"/>
<path d="M2165 2758 c-3 -13 -4 -196 -3 -408 l3 -385 30 0 c28 0 30 2 33 45 4
56 16 70 57 70 56 0 65 -8 65 -55 0 -40 18 -75 39 -75 29 0 31 36 29 426 l-3
399 -122 3 c-120 3 -123 2 -128 -20z"/>
</g>
</svg>
